<?xml version="1.0" encoding="utf-8"?>
<!-- Generator: Adobe Illustrator 27.2.0, SVG Export Plug-In . SVG Version: 6.00 Build 0)  -->
<svg version="1.1" id="Camada_1" xmlns="http://www.w3.org/2000/svg" xmlns:xlink="http://www.w3.org/1999/xlink" x="0px" y="0px"
	 viewBox="0 0 512 448.1" style="enable-background:new 0 0 512 448.1;" xml:space="preserve">
<style type="text/css">
	.st0{fill:#27AE60;}
</style>
<path class="st0" d="M272,64.1c-78.6,0-145.1,51.5-167.7,122.5c33.6-17,71.5-26.5,111.7-26.5h88c8.8,0,16,7.2,16,16s-7.2,16-16,16
	h-16h-72l0,0c-16.6,0-32.7,1.9-48.2,5.4c-25.9,5.9-50,16.4-71.4,30.7l0,0C38.3,266.9,0,333,0,408.1v16c0,13.3,10.7,24,24,24
	s24-10.7,24-24v-16c0-48.7,20.7-92.5,53.8-123.2c19.8,75.5,88.5,131.2,170.2,131.2h1c132.1-0.7,239-130.9,239-291.4
	c0-42.6-7.5-83.1-21.1-119.6c-2.6-6.9-12.7-6.6-16.2-0.1c-18.8,35.2-56,59.1-98.7,59.1H272z"/>
</svg>
